<svg xmlns="http://www.w3.org/2000/svg" width="1024" height="1024" viewBox="0 0 1024 1024">
  <defs>
    <linearGradient id="flame1024" x1="50%" y1="100%" x2="50%" y2="0%">
      <stop offset="0%" stop-color="#a78bfa"/>
      <stop offset="50%" stop-color="#fea0ff"/>
      <stop offset="100%" stop-color="#fff0ff"/>
    </linearGradient>
    <linearGradient id="core1024" x1="50%" y1="100%" x2="50%" y2="0%">
      <stop offset="0%" stop-color="#a855f7"/>
      <stop offset="100%" stop-color="#d8b4fe"/>
    </linearGradient>
    <filter id="softedge1024" x="-50%" y="-50%" width="200%" height="200%">
      <feGaussianBlur stdDeviation="32"/>
    </filter>
  </defs>
  <g transform="translate(-128, 128) rotate(-135, 512, 512)">
    <path d="M512 0 C682.7 298.7, 896 469.3, 896 768 C896 1024, 725.3 1194.7, 512 1194.7 C298.7 1194.7, 128 1024, 128 768 C128 469.3, 341.3 298.7, 512 0 Z" fill="url(#flame1024)"/>
    <path d="M512 298.7 C618.7 512, 746.7 597.3, 746.7 810.7 C746.7 981.3, 640 1109.3, 512 1109.3 C384 1109.3, 277.3 981.3, 277.3 810.7 C277.3 597.3, 405.3 512, 512 298.7 Z" fill="url(#core1024)" filter="url(#softedge1024)"/>
  </g>
</svg>
